<svg xmlns="http://www.w3.org/2000/svg" viewBox="0 0 32 32" fill="none">
  <!-- stem -->
  <path d="M16 5 Q18 2 21 3" stroke="#2e5443" stroke-width="1.5" stroke-linecap="round" fill="none"/>
  <!-- leaf -->
  <path d="M16 5 Q20 4 20 8 Q17 7 16 5Z" fill="#2e5443"/>
  <!-- apple body -->
  <path d="M10 10 Q8 10 7 13 Q5 17 6 21 Q7 26 10 28 Q12 30 14 28 Q15 27 16 27 Q17 27 18 28 Q20 30 22 28 Q25 26 26 21 Q27 17 25 13 Q24 10 22 10 Q20 9 18 10 Q17 11 16 11 Q15 11 14 10 Q12 9 10 10Z" fill="#c8463b"/>
</svg>
